<svg width="89" height="54" viewBox="0 0 89 54" fill="none" xmlns="http://www.w3.org/2000/svg">
<path d="M88.6729 53.078C87.9857 53.3326 1.56589 53.3195 0.964844 53.063C1.40486 52.5237 1.83178 52.0013 2.26056 51.4808C3.78471 49.6308 5.307 47.7809 6.83864 45.9366C8.78596 43.5904 10.7389 41.2499 12.69 38.9056C14.2834 36.992 15.875 35.0765 17.4665 33.161C17.6051 32.9944 17.7137 32.7996 17.871 32.6555C17.9421 32.5899 18.0956 32.6161 18.2117 32.6012C18.223 32.7023 18.2623 32.8109 18.2398 32.9045C17.8934 34.3706 17.532 35.8348 17.1894 37.3009C16.8093 38.9225 16.4535 40.5477 16.0716 42.1692C15.8225 43.2272 15.5379 44.2776 15.2851 45.3355C15.0792 46.1968 14.8994 47.0638 14.7028 47.9269C14.5006 48.807 14.2778 49.6814 14.0905 50.5633C13.8977 51.4771 14.0793 51.6868 15.0155 51.6924C15.8412 51.6961 16.6689 51.698 17.4946 51.6961C18.3597 51.6961 18.5488 51.5014 18.6667 50.6588C18.7491 50.0765 18.8821 49.4979 19.0393 48.9306C19.0749 48.8051 19.3015 48.6516 19.4438 48.6478C20.5822 48.6235 21.7207 48.6141 22.8572 48.6497C23.0463 48.6553 23.3085 48.8669 23.3965 49.0523C23.5407 49.3518 23.5781 49.7057 23.6474 50.0409C23.6848 50.2225 23.6811 50.4135 23.7185 50.597C23.9133 51.5426 24.1061 51.6961 25.076 51.6943C25.9954 51.6943 26.9166 51.698 27.836 51.6905C28.3902 51.6849 28.5737 51.4976 28.5382 50.949C28.5194 50.6401 28.4614 50.3311 28.3921 50.0278C28.0663 48.6029 27.7349 47.1798 27.3941 45.7587C27.0646 44.3824 26.7051 43.0137 26.3849 41.6356C25.958 39.8044 25.5629 37.9638 25.1397 36.1307C24.93 35.2207 24.6866 34.32 24.4638 33.4138C24.3252 32.8539 24.1829 32.2959 24.0649 31.7323C23.9395 31.1369 23.7691 30.9703 23.1606 30.9628C22.2562 30.9534 21.3518 30.9703 20.4474 30.9459C20.1703 30.9384 19.895 30.8373 19.6198 30.7812C19.7584 30.5359 19.8632 30.2662 20.0373 30.0509C21.2582 28.553 22.4902 27.0663 23.7242 25.5796C25.5947 23.3289 27.4784 21.0876 29.3452 18.8351C31.1127 16.7005 32.8616 14.551 34.6291 12.4164C36.2769 10.426 37.9396 8.44876 39.5892 6.46025C40.9598 4.80877 42.3211 3.14793 43.6898 1.49458C43.9089 1.23057 44.1448 0.983408 44.3714 0.725013C44.7196 0.328059 44.935 0.314953 45.2645 0.706289C46.1539 1.76983 47.0358 2.83898 47.9215 3.90439C49.8594 6.24117 51.8011 8.57421 53.7372 10.9129C55.8418 13.4537 57.9371 16.0021 60.0435 18.543C61.8504 20.7225 63.6667 22.8964 65.4792 25.074C66.9322 26.8191 68.3871 28.5642 69.8401 30.3112C69.8663 30.343 69.8719 30.3954 69.915 30.5171C69.6603 30.5621 69.4281 30.6351 69.1941 30.6407C68.3833 30.6576 67.5726 30.6463 66.7618 30.652C66.0971 30.6557 65.8949 30.8317 65.6683 31.4459C65.2227 32.6592 64.7527 33.8613 64.2827 35.0671C64.249 35.1551 64.1292 35.2918 64.0824 35.2806C63.9813 35.2525 63.8577 35.1626 63.8184 35.0671C63.5 34.2732 63.1967 33.4718 62.8896 32.6723C62.6837 32.1349 62.5189 31.5769 62.253 31.0714C62.1482 30.8729 61.8205 30.6819 61.5883 30.6763C60.2177 30.6407 58.8452 30.6463 57.4727 30.6669C56.9634 30.6744 56.8305 30.8841 57.0271 31.3728C57.4278 32.3671 57.864 33.3501 58.291 34.3331C59.1223 36.243 59.9687 38.1473 60.7832 40.0646C60.8768 40.2856 60.8974 40.6076 60.8075 40.8248C60.3244 42.0045 59.7926 43.1635 59.289 44.3338C58.907 45.2194 58.5512 46.1144 58.1693 47.0001C57.6562 48.1853 57.1301 49.365 56.6039 50.5446C56.2856 51.2598 56.3867 51.4396 57.1656 51.4452C58.319 51.4565 59.4743 51.4377 60.6277 51.4565C61.1389 51.4658 61.416 51.2636 61.5939 50.7749C62.165 49.1983 62.7735 47.6348 63.3765 46.0695C63.4214 45.9534 63.5375 45.8654 63.6199 45.7624C63.7135 45.856 63.8427 45.9328 63.8914 46.0452C64.1273 46.5844 64.3501 47.1293 64.5598 47.6798C64.9643 48.7396 65.3575 49.8012 65.7507 50.8648C65.8911 51.2449 66.1514 51.4527 66.5577 51.4527C67.9133 51.4565 69.2709 51.4677 70.6265 51.4471C71.28 51.4377 71.3736 51.2673 71.1152 50.6682C70.0048 48.0973 68.8907 45.5265 67.7748 42.9594C67.4902 42.3041 67.1531 41.6656 66.921 40.9934C66.8217 40.7031 66.8498 40.3137 66.9603 40.0197C67.3048 39.1041 67.7093 38.2128 68.0987 37.314C68.608 36.1457 69.1229 34.9791 69.6397 33.8126C69.8906 33.2453 70.149 32.6817 70.4112 32.1199C70.6471 31.6125 70.8193 31.5751 71.1751 31.9926C72.0233 32.9887 72.8528 33.998 73.6879 35.0035C75.0023 36.5838 76.3168 38.1622 77.6275 39.7463C78.8577 41.233 80.0804 42.7272 81.3124 44.2102C82.962 46.1968 84.6229 48.176 86.2725 50.1607C87.0664 51.1157 87.8509 52.08 88.6692 53.078H88.6729ZM43.8883 41.0739C43.8883 44.2682 43.8864 47.4626 43.8902 50.6588C43.8902 51.3179 44.0044 51.449 44.5867 51.449C48.0001 51.4527 51.4154 51.4508 54.8289 51.4434C55.4655 51.4434 55.5928 51.3029 55.5965 50.6644C55.6059 49.496 55.6003 48.3276 55.619 47.1592C55.6246 46.7885 55.4318 46.6069 55.1172 46.532C54.9075 46.4833 54.6847 46.487 54.4675 46.4852C52.6587 46.4814 50.8499 46.4852 49.0431 46.4814C48.3933 46.4814 48.296 46.3784 48.2903 45.7156C48.2866 45.2325 48.2829 44.7494 48.2903 44.2664C48.2978 43.6204 48.4139 43.508 49.0618 43.5061C50.6215 43.5024 52.1794 43.5061 53.7391 43.4968C54.3439 43.493 54.4581 43.3657 54.46 42.7853C54.4619 41.6637 54.4656 40.5421 54.46 39.4186C54.4562 38.6734 54.372 38.5892 53.6174 38.5854C52.0745 38.5798 50.5298 38.5854 48.9869 38.5817C48.3727 38.5817 48.2941 38.5012 48.2885 37.8758C48.2847 37.4077 48.2941 36.9414 48.2885 36.4733C48.2829 35.7075 48.3409 35.6438 49.103 35.642C51.0035 35.6401 52.9059 35.6457 54.8064 35.6364C55.297 35.6345 55.5422 35.406 55.546 34.9304C55.5572 33.7939 55.5628 32.6555 55.531 31.5189C55.5085 30.7175 55.4018 30.6463 54.6098 30.6463C52.1307 30.6463 49.6516 30.6463 47.1725 30.6463C46.3149 30.6463 45.4574 30.6407 44.5998 30.6482C44.0662 30.6538 43.9182 30.8055 43.8883 31.3485C43.8789 31.5189 43.8827 31.6912 43.8827 31.8634C43.8827 34.9342 43.8827 38.0031 43.8827 41.0739H43.8883ZM30.0979 41.0271C30.0979 41.7742 30.0979 42.5231 30.0979 43.2702C30.0979 45.6856 30.0979 48.0992 30.0998 50.5146C30.0998 51.2692 30.257 51.419 31.0023 51.4171C31.8598 51.4171 32.7174 51.4209 33.5731 51.4171C34.3164 51.4134 34.5168 51.213 34.5168 50.4716C34.5168 48.7733 34.5131 47.075 34.5131 45.3767C34.5131 44.8356 34.6366 44.7101 35.1684 44.7082C35.9473 44.7082 36.7281 44.6858 37.5052 44.7157C38.9151 44.7682 39.8532 44.0061 40.5966 42.9407C41.5833 41.5251 41.896 39.8662 41.969 38.2072C42.0552 36.2674 41.7949 34.3425 40.7351 32.6367C40.0086 31.4665 39.078 30.6089 37.5539 30.637C35.3875 30.6763 33.2211 30.6463 31.0547 30.652C30.2084 30.652 30.0941 30.7737 30.0941 31.6331C30.0941 34.7638 30.0941 37.8964 30.0941 41.0271H30.0979Z" fill="#2D5929"/>
<path d="M21.2789 38.0781C21.4118 38.5893 21.5729 39.0949 21.674 39.6116C21.9193 40.8737 22.1271 42.1413 22.3686 43.4033C22.4286 43.7141 22.2975 43.877 22.0335 43.8901C21.5073 43.9182 20.9774 43.9088 20.4513 43.8864C20.118 43.8714 19.9982 43.6579 20.0618 43.3359C20.1873 42.6974 20.3165 42.0608 20.4326 41.4204C20.6179 40.3981 20.7921 39.3738 20.9774 38.3515C20.9924 38.2672 21.0523 38.1905 21.0917 38.1118C21.1553 38.1006 21.2171 38.0894 21.2808 38.0781H21.2789Z" fill="#2D5929"/>
<path d="M43.8884 41.0741C43.8884 38.0033 43.8884 34.9344 43.8884 31.8636C43.8884 31.6914 43.8847 31.521 43.8941 31.3487C43.924 30.8057 44.0701 30.654 44.6056 30.6484C45.4631 30.6409 46.3207 30.6466 47.1783 30.6466C49.6574 30.6466 52.1365 30.6466 54.6156 30.6466C55.4095 30.6466 55.5143 30.7177 55.5368 31.5191C55.5686 32.6557 55.563 33.7941 55.5518 34.9307C55.5461 35.4063 55.3009 35.6347 54.8122 35.6366C52.9116 35.6459 51.0093 35.6403 49.1088 35.6422C48.3467 35.6422 48.2868 35.7077 48.2942 36.4735C48.298 36.9416 48.2886 37.4079 48.2942 37.876C48.2999 38.5032 48.3766 38.5819 48.9927 38.5819C50.5355 38.5838 52.0803 38.58 53.6232 38.5856C54.3778 38.5894 54.462 38.6736 54.4658 39.4189C54.4714 40.5404 54.4695 41.662 54.4658 42.7855C54.4658 43.3678 54.3497 43.4933 53.7449 43.497C52.1851 43.5082 50.6273 43.5026 49.0676 43.5064C48.4197 43.5064 48.3036 43.6206 48.2961 44.2666C48.2905 44.7496 48.2942 45.2327 48.2961 45.7158C48.2999 46.3787 48.3991 46.4816 49.0488 46.4816C50.8576 46.4816 52.6664 46.4816 54.4732 46.4854C54.6904 46.4854 54.9151 46.4816 55.123 46.5322C55.4357 46.6071 55.6304 46.7887 55.6248 47.1595C55.6042 48.3279 55.6117 49.4962 55.6023 50.6646C55.5967 51.3031 55.4713 51.4417 54.8346 51.4436C51.4212 51.4511 48.0059 51.4529 44.5925 51.4492C44.0101 51.4492 43.8978 51.3162 43.8959 50.659C43.8922 47.4647 43.8941 44.2703 43.8922 41.0741H43.8884Z" fill="white"/>
<path d="M30.0981 41.027C30.0981 37.8963 30.0981 34.7637 30.0981 31.633C30.0981 30.7736 30.2124 30.6538 31.0587 30.6519C33.2251 30.6481 35.3915 30.6762 37.5579 30.6369C39.0839 30.6088 40.0126 31.4664 40.7391 32.6367C41.797 34.3424 42.0592 36.2673 41.9731 38.2071C41.8982 39.8661 41.5855 41.525 40.6006 42.9406C39.8591 44.006 38.9191 44.77 37.5092 44.7157C36.7303 44.6857 35.9513 44.7063 35.1724 44.7082C34.6406 44.7082 34.5171 44.8374 34.5171 45.3766C34.5171 47.0749 34.5227 48.7732 34.5208 50.4715C34.5208 51.213 34.3205 51.4133 33.5771 51.4171C32.7195 51.4208 31.862 51.4171 31.0063 51.4171C30.261 51.4171 30.1038 51.2691 30.1038 50.5145C30.1 48.0991 30.1019 45.6856 30.1019 43.2701C30.1019 42.523 30.1019 41.7741 30.1019 41.027H30.0981ZM34.5189 37.6791C34.5189 38.1622 34.5189 38.6453 34.5189 39.1283C34.5189 39.4691 34.6762 39.6582 35.0245 39.6582C35.399 39.6582 35.7884 39.7144 36.1423 39.6283C36.4457 39.5534 36.8033 39.3774 36.9699 39.1321C37.5766 38.2427 37.4886 37.2765 37.0767 36.3328C36.8819 35.889 36.4831 35.7149 36.015 35.6924C35.736 35.6793 35.4551 35.6793 35.1762 35.6606C34.7212 35.6307 34.5377 35.7748 34.5227 36.2317C34.5077 36.7148 34.5189 37.1979 34.5208 37.681L34.5189 37.6791Z" fill="white"/>
<path d="M34.5187 37.6809C34.5187 37.1978 34.5075 36.7147 34.5224 36.2316C34.5374 35.7747 34.7209 35.6306 35.1759 35.6605C35.4549 35.6792 35.7358 35.6792 36.0148 35.6924C36.4847 35.7129 36.8836 35.889 37.0764 36.3327C37.4902 37.2764 37.5764 38.2426 36.9697 39.132C36.8031 39.3773 36.4454 39.5533 36.1421 39.6282C35.7882 39.7143 35.3987 39.6581 35.0242 39.6581C34.6741 39.6581 34.5168 39.469 34.5187 39.1282C34.5187 38.6452 34.5187 38.1621 34.5187 37.679V37.6809Z" fill="#2D5929"/>
</svg>
