<svg width="90" height="73" viewBox="0 0 90 73" fill="none" xmlns="http://www.w3.org/2000/svg">
<path d="M19.3493 30.8325L17.7855 32.6971L12.252 52.0044L22.5973 52.7863L29.3939 52.0044L24.2814 30.8325H19.3493Z" fill="white"/>
<path d="M61.2968 29.2295L55.7469 29.6594L54.1348 52.0043H71.5892L80.9614 44.6538L69.5616 30.5483L61.2968 29.2295Z" fill="white"/>
<path d="M88.5713 52.7699C87.8842 53.0245 1.46433 53.0114 0.863281 52.7549C1.3033 52.2156 1.73021 51.6932 2.159 51.1727C3.68315 49.3227 5.20543 47.4728 6.73708 45.6284C8.6844 43.2823 10.6373 40.9418 12.5884 38.5975C14.1818 36.6839 15.7734 34.7684 17.3649 32.8529C17.5035 32.6863 17.6121 32.4915 17.7694 32.3473C17.8405 32.2818 17.9941 32.308 18.1102 32.293C18.1214 32.3942 18.1607 32.5028 18.1383 32.5964C17.7919 34.0625 17.4305 35.5267 17.0878 36.9928C16.7077 38.6143 16.352 40.2396 15.97 41.8611C15.721 42.9191 15.4364 43.9695 15.1836 45.0274C14.9776 45.8887 14.7979 46.7556 14.6013 47.6188C14.399 48.4989 14.1762 49.3733 13.989 50.2552C13.7961 51.1689 13.9777 51.3787 14.9139 51.3843C15.7397 51.388 16.5673 51.3899 17.393 51.388C18.2581 51.388 18.4472 51.1933 18.5652 50.3507C18.6476 49.7684 18.7805 49.1898 18.9378 48.6224C18.9734 48.497 19.1999 48.3435 19.3422 48.3397C20.4807 48.3154 21.6191 48.306 22.7557 48.3416C22.9448 48.3472 23.2069 48.5588 23.2949 48.7442C23.4391 49.0437 23.4765 49.3976 23.5458 49.7328C23.5833 49.9144 23.5795 50.1054 23.617 50.2889C23.8117 51.2345 24.0046 51.388 24.9745 51.3861C25.8938 51.3861 26.8151 51.3899 27.7344 51.3824C28.2887 51.3768 28.4722 51.1895 28.4366 50.6409C28.4179 50.332 28.3598 50.023 28.2905 49.7197C27.9647 48.2948 27.6333 46.8717 27.2925 45.4506C26.963 44.0743 26.6035 42.7056 26.2833 41.3275C25.8564 39.4963 25.4613 37.6557 25.0381 35.8226C24.8284 34.9126 24.585 34.0119 24.3622 33.1057C24.2236 32.5458 24.0813 31.9878 23.9634 31.4242C23.8379 30.8288 23.6675 30.6622 23.059 30.6547C22.1546 30.6453 21.2502 30.6622 20.3458 30.6378C20.0687 30.6303 19.7935 30.5292 19.5182 30.4731C19.6568 30.2278 19.7617 29.9581 19.9358 29.7428C21.1566 28.2449 22.3887 26.7582 23.6226 25.2715C25.4931 23.0208 27.3768 20.7795 29.2436 18.527C31.0112 16.3924 32.76 14.2429 34.5276 12.1083C36.1753 10.1179 37.838 8.14065 39.4876 6.15214C40.8582 4.50066 42.2195 2.83982 43.5882 1.18647C43.8073 0.922462 44.0432 0.675302 44.2698 0.416908C44.6181 0.0199539 44.8334 0.00684726 45.1629 0.398184C46.0523 1.46172 46.9343 2.53087 47.8199 3.59628C49.7579 5.93307 51.6996 8.26611 53.6357 10.6048C55.7403 13.1456 57.8355 15.694 59.942 18.2349C61.7489 20.4144 63.5651 22.5883 65.3776 24.7659C66.8306 26.511 68.2855 28.2561 69.7385 30.0031C69.7647 30.0349 69.7703 30.0873 69.8134 30.209C69.5588 30.254 69.3266 30.327 69.0925 30.3326C68.2818 30.3495 67.471 30.3382 66.6602 30.3439C65.9955 30.3476 65.7933 30.5236 65.5667 31.1378C65.1211 32.3511 64.6511 33.5532 64.1812 34.759C64.1474 34.847 64.0276 34.9837 63.9808 34.9725C63.8797 34.9444 63.7561 34.8545 63.7168 34.759C63.3985 33.9651 63.0951 33.1637 62.7881 32.3642C62.5821 31.8268 62.4173 31.2688 62.1514 30.7633C62.0466 30.5648 61.7189 30.3738 61.4867 30.3682C60.1161 30.3326 58.7436 30.3382 57.3711 30.3588C56.8619 30.3663 56.7289 30.576 56.9255 31.0647C57.3262 32.059 57.7625 33.042 58.1894 34.025C59.0208 35.9349 59.8671 37.8392 60.6816 39.7565C60.7752 39.9775 60.7958 40.2995 60.7059 40.5167C60.2229 41.6964 59.6911 42.8554 59.1874 44.0257C58.8054 44.9113 58.4497 45.8063 58.0677 46.692C57.5546 47.8772 57.0285 49.0569 56.5023 50.2365C56.184 50.9517 56.2851 51.1315 57.0641 51.1371C58.2175 51.1483 59.3728 51.1296 60.5262 51.1483C61.0374 51.1577 61.3145 50.9555 61.4924 50.4668C62.0634 48.8902 62.672 47.3267 63.2749 45.7614C63.3198 45.6453 63.4359 45.5573 63.5183 45.4543C63.6119 45.5479 63.7411 45.6247 63.7898 45.737C64.0257 46.2763 64.2486 46.8212 64.4583 47.3717C64.8627 48.4315 65.2559 49.4931 65.6491 50.5567C65.7896 50.9368 66.0498 51.1446 66.4561 51.1446C67.8118 51.1483 69.1693 51.1596 70.5249 51.139C71.1784 51.1296 71.272 50.9592 71.0136 50.3601C69.9033 47.7892 68.7892 45.2184 67.6732 42.6513C67.3886 41.9959 67.0516 41.3574 66.8194 40.6852C66.7202 40.395 66.7482 40.0056 66.8587 39.7116C67.2032 38.796 67.6077 37.9047 67.9972 37.0059C68.5065 35.8375 69.0214 34.671 69.5382 33.5045C69.7891 32.9372 70.0475 32.3736 70.3096 31.8118C70.5455 31.3044 70.7178 31.267 71.0735 31.6845C71.9218 32.6806 72.7512 33.6899 73.5863 34.6954C74.9008 36.2757 76.2152 37.8541 77.5259 39.4382C78.7561 40.9249 79.9788 42.4191 81.2108 43.9021C82.8605 45.8887 84.5213 47.8679 86.1709 49.8526C86.9648 50.8076 87.7493 51.7719 88.5676 52.7699H88.5713ZM43.7867 40.7658C43.7867 43.9601 43.7848 47.1545 43.7886 50.3507C43.7886 51.0098 43.9028 51.1409 44.4851 51.1409C47.8986 51.1446 51.3139 51.1427 54.7273 51.1352C55.3639 51.1352 55.4912 50.9948 55.495 50.3563C55.5043 49.1879 55.4987 48.0195 55.5175 46.8511C55.5231 46.4804 55.3302 46.2988 55.0156 46.2239C54.8059 46.1752 54.5831 46.1789 54.3659 46.1771C52.5571 46.1733 50.7484 46.1771 48.9415 46.1733C48.2918 46.1733 48.1944 46.0703 48.1888 45.4075C48.185 44.9244 48.1813 44.4413 48.1888 43.9582C48.1963 43.3123 48.3124 43.1999 48.9602 43.198C50.5199 43.1943 52.0778 43.198 53.6375 43.1887C54.2423 43.1849 54.3565 43.0576 54.3584 42.4772C54.3603 41.3556 54.364 40.234 54.3584 39.1105C54.3547 38.3653 54.2704 38.2811 53.5158 38.2773C51.973 38.2717 50.4282 38.2773 48.8853 38.2736C48.2712 38.2736 48.1925 38.1931 48.1869 37.5677C48.1832 37.0996 48.1925 36.6333 48.1869 36.1652C48.1813 35.3994 48.2393 35.3357 49.0014 35.3339C50.9019 35.332 52.8043 35.3376 54.7048 35.3282C55.1954 35.3264 55.4407 35.0979 55.4444 34.6223C55.4557 33.4858 55.4613 32.3473 55.4294 31.2108C55.407 30.4094 55.3002 30.3382 54.5082 30.3382C52.0291 30.3382 49.55 30.3382 47.0709 30.3382C46.2134 30.3382 45.3558 30.3326 44.4982 30.3401C43.9646 30.3457 43.8167 30.4974 43.7867 31.0404C43.7774 31.2108 43.7811 31.383 43.7811 31.5553C43.7811 34.6261 43.7811 37.695 43.7811 40.7658H43.7867ZM29.9963 40.719C29.9963 41.4661 29.9963 42.215 29.9963 42.9621C29.9963 45.3775 29.9963 47.7911 29.9982 50.2065C29.9982 50.9611 30.1555 51.1109 30.9007 51.109C31.7583 51.109 32.6158 51.1128 33.4715 51.109C34.2149 51.1053 34.4152 50.9049 34.4152 50.1635C34.4152 48.4652 34.4115 46.7669 34.4115 45.0686C34.4115 44.5275 34.5351 44.402 35.0668 44.4001C35.8458 44.4001 36.6266 44.3777 37.4036 44.4076C38.8136 44.4601 39.7516 43.698 40.495 42.6326C41.4818 41.217 41.7945 39.5581 41.8675 37.8991C41.9536 35.9593 41.6933 34.0344 40.6336 32.3286C39.9071 31.1584 38.9765 30.3008 37.4523 30.3289C35.2859 30.3682 33.1195 30.3382 30.9531 30.3439C30.1068 30.3439 29.9926 30.4656 29.9926 31.325C29.9926 34.4557 29.9926 37.5883 29.9926 40.719H29.9963Z" fill="#2D5929"/>
<path d="M83.9388 72.7692C83.3152 72.7692 82.6823 72.7018 82.0701 72.7823C80.3006 73.0107 79.3064 70.4792 80.0928 69.3295C80.2407 69.1123 80.3456 68.8483 80.5347 68.6779C80.9298 68.3222 80.8418 67.9645 80.6133 67.5919C80.1171 66.7812 80.2164 65.9348 80.911 65.2682C81.6956 64.5155 81.7106 64.7234 81.014 63.7216C80.0965 62.4016 80.3999 59.6903 82.9501 59.254C83.6335 59.1361 84.3469 59.1211 85.0416 59.1567C85.6951 59.1904 86.2025 58.9825 86.5058 58.4433C86.8653 57.8048 87.3634 57.5932 88.0525 57.6905C88.206 57.713 88.3633 57.6905 88.5206 57.6924C89.1085 57.6962 89.3182 57.9695 89.0261 58.4751C88.7921 58.8795 88.4719 59.269 88.1011 59.5517C87.5226 59.9936 87.4495 60.1378 87.8353 60.8231C88.4925 61.9896 88.2996 63.5082 87.3803 64.4594C86.7343 65.1259 85.9123 65.2963 85.0341 65.315C84.6446 65.3244 84.2552 65.315 83.8657 65.3319C83.7141 65.3375 83.5268 65.3469 83.4238 65.4349C83.2572 65.5772 83.0381 65.7906 83.0456 65.9629C83.0531 66.1108 83.3302 66.3093 83.5231 66.3692C83.8133 66.4591 84.1353 66.461 84.4443 66.4741C85.2532 66.5078 86.0639 66.549 86.8728 66.549C88.2172 66.549 89.0448 67.9889 89.1403 68.9419C89.2564 70.0991 88.9606 71.1121 88.0768 71.8798C87.4926 72.3872 86.8429 72.8141 85.9947 72.7785C85.3094 72.7504 84.6222 72.7729 83.9369 72.7729L83.9388 72.7692ZM84.405 70.923C84.405 70.923 84.405 70.9342 84.405 70.9417C84.7476 70.9417 85.0884 70.951 85.4311 70.9398C85.9834 70.9192 86.4066 70.4754 86.4309 69.9137C86.4572 69.2883 86.092 68.8127 85.5041 68.7903C84.7589 68.7622 84.0118 68.7641 83.2684 68.7978C82.6561 68.8258 82.4202 69.1236 82.4015 69.7789C82.3828 70.4305 82.6805 70.8612 83.2422 70.9173C83.6261 70.9548 84.0174 70.9248 84.405 70.9248V70.923ZM85.5902 62.1881C85.5865 61.3006 85.2026 60.8961 84.3657 60.9036C83.5605 60.9111 83.1579 61.3717 83.1636 62.2836C83.1673 63.0607 83.641 63.5344 84.4162 63.5419C85.1933 63.5475 85.594 63.0869 85.5902 62.19V62.1881Z" fill="white"/>
<path d="M5.42551 68.9666C4.49866 69.0059 3.58679 68.9329 2.73858 68.5078C1.91846 68.0959 1.26498 67.536 0.989734 66.6204C0.877389 66.2497 0.729468 65.8864 0.643336 65.5101C0.557205 65.1393 0.721978 64.8978 1.12455 64.8884C1.74807 64.8753 2.37346 64.8435 2.99323 64.894C3.18234 64.909 3.41827 65.1356 3.51563 65.3247C3.73096 65.746 3.88076 66.2047 4.42938 66.2871C5.09221 66.3882 5.76629 66.495 6.39168 66.1448C6.84667 65.8902 6.85229 65.0794 6.3767 64.8023C5.97974 64.5701 5.53036 64.4259 5.09783 64.2593C4.18784 63.9092 3.23477 63.6451 2.36971 63.2032C1.33426 62.6752 1.00097 61.6585 0.860538 60.5594C0.675168 59.097 1.51214 57.3894 2.6281 56.852C3.78526 56.294 4.978 56.1929 6.22503 56.3464C7.17435 56.4644 7.97949 56.8557 8.63858 57.5467C9.18908 58.1234 9.45309 58.8237 9.51301 59.6101C9.53922 59.9696 9.31827 60.14 9.00745 60.1512C8.40079 60.1737 7.7885 60.1924 7.18746 60.125C6.99272 60.1025 6.76242 59.8441 6.66131 59.6382C6.26248 58.8386 4.79637 58.5933 4.18784 59.2487C3.80586 59.6588 3.87327 60.2598 4.39193 60.5313C4.81135 60.7522 5.2832 60.8777 5.73258 61.0425C6.63322 61.3702 7.5919 61.5948 8.42138 62.0498C9.39692 62.5835 9.84068 63.559 9.86128 64.6731C9.88936 66.0737 9.55233 67.3713 8.33525 68.1989C7.77727 68.5771 7.06575 68.7494 6.40291 68.946C6.10332 69.0359 5.75318 68.961 5.42551 68.961V68.9666Z" fill="white"/>
<path d="M64.157 62.2182C64.157 64.1206 64.157 66.0211 64.157 67.9235C64.157 68.6312 64.0165 68.766 63.305 68.7717C63.071 68.7717 62.8369 68.7679 62.6029 68.7623C62.2096 68.7511 61.9775 68.5732 61.8895 68.1669C61.7827 67.6782 61.6142 67.637 61.2266 67.9665C61.0375 68.1275 60.8765 68.3242 60.6818 68.4758C59.416 69.4701 57.5454 69.0319 56.7834 67.5714C56.3733 66.785 56.128 65.9518 56.1411 65.0605C56.1561 64.0644 56.1055 63.0552 56.2628 62.0796C56.3714 61.4018 56.6879 60.7071 57.0773 60.1342C57.8844 58.9471 59.6145 58.7748 60.7698 59.6605C60.9046 59.7634 61.1611 59.8945 61.2397 59.8383C61.3727 59.7447 61.47 59.5144 61.4738 59.3384C61.5 58.3423 61.5056 57.3443 61.4925 56.3481C61.4888 56.0092 61.5917 55.7845 61.9381 55.7658C62.528 55.734 63.1215 55.704 63.7095 55.7302C64.1139 55.7471 64.1645 56.0766 64.1626 56.4174C64.1551 58.0689 64.1551 59.7222 64.1532 61.3737C64.1532 61.6546 64.1532 61.9354 64.1532 62.2163L64.157 62.2182ZM58.6914 63.9745C58.7101 63.9764 58.7288 63.9801 58.7475 63.982C58.7475 64.2161 58.7326 64.4501 58.7513 64.6823C58.7719 64.9294 58.8018 65.1785 58.8655 65.4163C59.0303 66.0211 59.416 66.33 59.9946 66.3506C60.663 66.375 61.1705 66.0941 61.3371 65.4893C61.6049 64.5288 61.5974 63.5457 61.3221 62.5852C61.1705 62.0553 60.6012 61.6995 60.0657 61.7089C59.5134 61.7201 59.0527 62.0272 58.8936 62.6002C58.77 63.042 58.755 63.5139 58.6914 63.9726V63.9745Z" fill="white"/>
<path d="M28.7975 63.9106C28.7975 64.5341 28.7994 65.1576 28.7975 65.7812C28.7957 66.18 28.9436 66.4833 29.3331 66.6237C29.6682 66.7436 29.7787 66.9795 29.7581 67.3147C29.7469 67.4851 29.7431 67.6592 29.7581 67.8277C29.8087 68.4456 29.6046 68.7134 28.8687 68.8407C28.0111 68.9886 27.2322 68.7826 26.5825 68.176C26.2492 67.8652 25.9777 67.8858 25.4983 68.2059C24.4816 68.8875 23.3937 69.0822 22.2141 68.6666C21.3322 68.3557 20.8847 67.7116 20.8042 66.8185C20.7218 65.9085 20.7237 64.9779 21.4127 64.2701C21.746 63.9275 22.1823 63.5885 22.6298 63.4687C23.5267 63.2309 24.4666 63.1579 25.3841 62.9894C25.6219 62.9463 25.9964 62.8302 26.0301 62.6823C26.0919 62.4164 26.0264 62.0457 25.8709 61.8172C25.4927 61.263 24.4573 61.1394 23.9892 61.6262C23.5211 62.1131 23.0043 62.2179 22.3901 62.1636C22.1729 62.1449 21.9538 62.1636 21.7366 62.158C21.0869 62.143 20.9483 61.894 21.1281 61.2536C21.4782 60.0066 22.4051 59.4187 23.5641 59.2352C24.8561 59.0311 26.1799 58.9562 27.3988 59.6284C28.1328 60.0328 28.6571 60.6339 28.7264 61.4858C28.7919 62.2891 28.7414 63.1036 28.7414 63.9125C28.762 63.9125 28.7826 63.9125 28.8032 63.9125L28.7975 63.9106ZM23.4293 65.8766C23.5828 66.1388 23.6802 66.4739 23.903 66.6462C24.2962 66.9514 25.0901 66.8391 25.4871 66.5357C26.0133 66.1332 26.2136 65.5977 26.0582 64.976C26.0151 64.8056 25.7174 64.5903 25.532 64.5847C25.137 64.5716 24.725 64.6427 24.3412 64.7532C23.8113 64.9049 23.5379 65.3074 23.4293 65.8766Z" fill="white"/>
<path d="M70.9939 64.0213C70.9939 62.7125 70.9901 61.4036 70.9957 60.0948C70.9995 59.4769 71.123 59.3608 71.7391 59.3458C71.9413 59.3402 72.1473 59.3627 72.3457 59.3365C72.8644 59.2709 73.1602 59.4807 73.3119 59.9862C73.4523 60.4562 73.8231 60.518 74.1414 60.1416C74.6975 59.4863 75.3847 59.1549 76.2535 59.1324C77.626 59.0987 78.3412 59.8851 78.6745 61.0891C78.7644 61.413 78.7756 61.7669 78.7775 62.1077C78.785 64.0718 78.7794 66.0341 78.7756 67.9983C78.7756 68.6275 78.6352 68.7641 78.0023 68.7698C77.6447 68.7716 77.2833 68.7791 76.9276 68.751C76.2629 68.7005 76.1524 68.5731 76.1524 67.9103C76.1524 66.3824 76.1561 64.8564 76.1486 63.3285C76.1486 63.0645 76.1131 62.8005 76.0793 62.5402C76.0157 62.0459 75.7011 61.7425 75.248 61.6358C74.8024 61.531 74.3736 61.7276 74.1508 62.0964C73.9279 62.4653 73.7426 62.9203 73.7276 63.3435C73.677 64.8526 73.707 66.3656 73.7051 67.8785C73.7051 68.5881 73.5272 68.7679 72.8251 68.7679C72.4656 68.7679 72.1079 68.7735 71.7503 68.7641C71.183 68.7492 70.9957 68.5619 70.9939 67.9964C70.9901 66.6726 70.9939 65.347 70.9939 64.0232V64.0213Z" fill="white"/>
<path d="M41.71 64.0252C41.6856 62.9168 41.9028 61.8607 42.4739 60.902C42.9214 60.1512 43.5768 59.6381 44.4156 59.3854C45.7263 58.9922 47.037 59.039 48.2129 59.7374C48.7316 60.0445 49.1566 60.5949 49.4843 61.123C50.2389 62.3363 50.1546 63.7069 50.0797 65.07C50.0292 65.9875 49.7034 66.7833 49.1922 67.5304C48.6848 68.27 47.9414 68.6932 47.125 68.8673C45.4941 69.2156 43.9531 69.0246 42.7716 67.6577C42.0451 66.817 41.8298 65.7872 41.71 64.7274C41.6838 64.4971 41.7062 64.2611 41.7062 64.0271L41.71 64.0252ZM44.2696 64.029C44.3632 64.6225 44.3894 65.2386 44.5673 65.8059C44.7939 66.5287 45.3013 66.7852 46.1064 66.7402C46.7093 66.7065 47.1531 66.3171 47.3366 65.6467C47.6306 64.5851 47.6137 63.5253 47.3216 62.4655C47.1662 61.9 46.8105 61.5405 46.2394 61.4338C45.5503 61.3065 45.0691 61.5499 44.7096 62.0779C44.2995 62.6808 44.3426 63.3474 44.2696 64.029Z" fill="white"/>
<path d="M13.6378 64.0454C13.6621 64.4798 13.6621 64.9179 13.7164 65.3486C13.8138 66.1144 14.3418 66.6593 15.0159 66.7398C15.9371 66.8484 16.4427 66.5619 16.7778 65.7287C16.952 65.2943 17.2085 65.034 17.7328 65.1127C18.0829 65.1651 18.448 65.1277 18.8057 65.1277C19.1858 65.1277 19.3655 65.3449 19.3131 65.695C19.1202 66.9776 18.5772 68.0187 17.3096 68.5673C15.8978 69.1777 14.4972 69.1983 13.1154 68.513C12.3945 68.1554 11.8459 67.5674 11.5425 66.8465C10.9321 65.3935 10.7673 63.875 11.2242 62.3321C11.3422 61.9314 11.4227 61.5045 11.623 61.1469C12.5536 59.4692 14.0834 59.0273 15.8716 59.1902C16.7085 59.267 17.4762 59.531 18.1316 60.0852C18.8637 60.705 19.2157 61.5101 19.3168 62.4407C19.3543 62.7927 19.1464 62.9669 18.8188 62.9762C18.3357 62.9912 17.8526 62.9968 17.3695 62.9725C17.0006 62.9519 16.7179 62.7909 16.6449 62.3752C16.5569 61.8696 16.1749 61.5775 15.7368 61.4708C15.2256 61.3454 14.6751 61.3304 14.2519 61.776C13.8831 62.1636 13.6602 62.6111 13.6677 63.1579C13.6715 63.4537 13.6677 63.7496 13.6677 64.0454H13.634H13.6378Z" fill="white"/>
<path d="M31.145 65.3299C31.145 64.4105 31.1319 63.493 31.1506 62.5737C31.16 62.143 31.0326 61.8546 30.5964 61.7255C30.1488 61.5925 29.9916 61.2798 30.0702 60.8248C30.1002 60.6582 30.1095 60.4822 30.0945 60.3136C30.0515 59.8512 30.1975 59.5328 30.6731 59.3887C31.0382 59.2782 31.1131 58.9767 31.1599 58.621C31.2423 58.0143 31.3378 57.3983 31.5288 56.8197C31.8116 55.9659 32.5699 55.6813 33.3694 55.6157C33.8806 55.5745 34.4086 55.7299 34.9273 55.7974C34.9572 55.8011 34.9891 55.8105 35.0153 55.8273C35.6088 56.2224 35.2624 56.8272 35.313 57.3327C35.328 57.4807 35.019 57.7559 34.813 57.8121C34.3655 57.9357 33.9948 58.0873 33.8319 58.5648C33.6765 59.0198 33.8862 59.3849 34.3618 59.4392C34.5153 59.4561 34.6745 59.4486 34.828 59.4673C35.1726 59.5085 35.3598 59.692 35.3523 60.0571C35.3448 60.3829 35.3542 60.7106 35.3579 61.0383C35.3635 61.4596 35.1501 61.658 34.7344 61.6899C33.8469 61.7573 33.742 61.8771 33.742 62.7815C33.742 64.4948 33.742 66.2062 33.7383 67.9194C33.7364 68.7339 33.5904 68.8762 32.7908 68.88C32.4632 68.88 32.1374 68.8893 31.8097 68.8837C31.2573 68.8744 31.1506 68.7733 31.1468 68.2265C31.1412 67.2603 31.1468 66.296 31.145 65.3299Z" fill="white"/>
<path d="M37.0217 65.3467C37.0217 64.4592 37.0217 63.5698 37.0217 62.6823C37.0217 62.1805 36.9281 61.7667 36.3214 61.6356C36.1679 61.6019 36.0124 61.3135 35.9638 61.1151C35.902 60.866 35.9638 60.587 35.945 60.3249C35.9113 59.8568 35.9937 59.5291 36.5461 59.3906C36.7464 59.34 36.9206 58.9749 37.003 58.7184C37.1134 58.3832 37.1284 58.0162 37.1733 57.6623C37.3924 55.9228 38.8436 55.4154 40.2198 55.6289C41.0699 55.7618 41.5305 56.6999 41.1335 57.477C41.0493 57.6417 40.8115 57.7353 40.6336 57.8439C40.4389 57.96 40.216 58.0312 40.0344 58.1641C39.7367 58.3813 39.5663 58.6809 39.6992 59.0591C39.8266 59.4205 40.158 59.4318 40.4763 59.4505C41.0268 59.4842 41.1635 59.6302 41.1747 60.1639C41.1803 60.4279 41.1934 60.6919 41.2065 60.9578C41.2271 61.3772 41.0156 61.63 40.5961 61.6843C39.6899 61.8023 39.6449 61.8547 39.6449 62.7591C39.6468 64.5042 39.6487 66.2493 39.6449 67.9944C39.6449 68.792 39.5532 68.88 38.7612 68.8838C38.4503 68.8838 38.1376 68.8838 37.8268 68.88C37.1396 68.8688 36.9842 68.7115 36.9824 68.0131C36.9786 67.1255 36.9824 66.238 36.9824 65.3505C36.9955 65.3505 37.0104 65.3505 37.0236 65.3505L37.0217 65.3467Z" fill="white"/>
<path d="M54.343 62.2444C54.343 64.0981 54.343 65.9499 54.343 67.8036C54.343 68.65 54.2231 68.766 53.36 68.7642C53.0323 68.7642 52.7046 68.7735 52.3788 68.7436C51.9631 68.7043 51.7422 68.4739 51.7422 68.0321C51.7459 64.1692 51.7422 60.3083 51.7478 56.4455C51.7478 55.9568 51.9631 55.7452 52.4649 55.7209C52.8544 55.7021 53.2439 55.7059 53.6333 55.7153C54.2044 55.7284 54.3411 55.8688 54.3411 56.453C54.343 58.3835 54.3411 60.3158 54.3411 62.2463L54.343 62.2444Z" fill="white"/>
<path d="M68.9631 64.0699C68.9631 65.3768 68.9668 66.6838 68.9631 67.9907C68.9612 68.6143 68.8076 68.7622 68.1897 68.7678C67.8171 68.7715 67.4426 68.779 67.07 68.7603C66.6693 68.7416 66.4278 68.5188 66.4259 68.1106C66.4203 65.3881 66.4222 62.6656 66.4222 59.9431C66.4222 59.5349 66.645 59.3495 67.0363 59.3439C67.4726 59.3383 67.9089 59.3495 68.3433 59.3401C68.7758 59.3308 68.9705 59.5424 68.9705 59.9637C68.9705 61.3324 68.9705 62.7011 68.9705 64.0699H68.9668H68.9631Z" fill="white"/>
<path d="M21.1768 37.77C21.3098 38.2812 21.4708 38.7867 21.5719 39.3035C21.8172 40.5655 22.0251 41.8332 22.2666 43.0952C22.3265 43.406 22.1954 43.5689 21.9314 43.582C21.4053 43.6101 20.8754 43.6007 20.3492 43.5783C20.0159 43.5633 19.8961 43.3498 19.9598 43.0278C20.0852 42.3893 20.2144 41.7527 20.3305 41.1123C20.5159 40.09 20.69 39.0657 20.8754 38.0434C20.8904 37.9591 20.9503 37.8824 20.9896 37.8037C21.0533 37.7925 21.1151 37.7813 21.1787 37.77H21.1768Z" fill="#2D5929"/>
<path d="M67.7137 57.9397C66.8511 57.9384 66.4192 57.5109 66.418 56.657C66.4161 55.8294 66.5228 55.7208 67.3542 55.7152C67.7118 55.7133 68.0695 55.704 68.4271 55.7208C68.8203 55.7396 69.0207 55.9511 69.0001 56.3556C68.9851 56.6496 68.9776 56.9454 68.9682 57.2412C68.9495 57.8011 68.8241 57.9265 68.2736 57.9378C68.0863 57.9415 67.9009 57.9378 67.7137 57.9378V57.9397Z" fill="white"/>
<path d="M43.7859 40.766C43.7859 37.6952 43.7859 34.6263 43.7859 31.5555C43.7859 31.3833 43.7822 31.2129 43.7915 31.0406C43.8215 30.4976 43.9675 30.3459 44.503 30.3403C45.3606 30.3328 46.2182 30.3384 47.0757 30.3384C49.5548 30.3384 52.0339 30.3384 54.513 30.3384C55.3069 30.3384 55.4118 30.4096 55.4342 31.211C55.4661 32.3476 55.4605 33.486 55.4492 34.6226C55.4436 35.0982 55.1983 35.3266 54.7096 35.3285C52.8091 35.3378 50.9067 35.3322 49.0062 35.3341C48.2441 35.3341 48.1842 35.3996 48.1917 36.1654C48.1955 36.6335 48.1861 37.0998 48.1917 37.5679C48.1973 38.1951 48.2741 38.2738 48.8901 38.2738C50.433 38.2757 51.9778 38.2719 53.5206 38.2775C54.2752 38.2813 54.3595 38.3655 54.3632 39.1108C54.3688 40.2323 54.367 41.3539 54.3632 42.4774C54.3632 43.0597 54.2471 43.1851 53.6423 43.1889C52.0826 43.2001 50.5247 43.1945 48.965 43.1983C48.3172 43.1983 48.2011 43.3125 48.1936 43.9585C48.188 44.4415 48.1917 44.9246 48.1936 45.4077C48.1973 46.0706 48.2966 46.1735 48.9463 46.1735C50.7551 46.1735 52.5638 46.1735 54.3707 46.1773C54.5879 46.1773 54.8126 46.1735 55.0204 46.2241C55.3331 46.299 55.5279 46.4806 55.5223 46.8514C55.5017 48.0197 55.5091 49.1881 55.4998 50.3565C55.4942 50.995 55.3687 51.1336 54.7321 51.1355C51.3187 51.1429 47.9034 51.1448 44.4899 51.1411C43.9076 51.1411 43.7953 51.0081 43.7934 50.3509C43.7896 47.1566 43.7915 43.9622 43.7896 40.766H43.7859Z" fill="white"/>
<path d="M29.9961 40.7189C29.9961 37.5882 29.9961 34.4556 29.9961 31.3249C29.9961 30.4655 30.1103 30.3456 30.9566 30.3438C33.123 30.34 35.2894 30.3681 37.4558 30.3288C38.9819 30.3007 39.9106 31.1583 40.6371 32.3285C41.695 34.0343 41.9571 35.9592 41.871 37.899C41.7961 39.558 41.4834 41.2169 40.4985 42.6325C39.757 43.6979 38.8171 44.4618 37.4071 44.4075C36.6282 44.3776 35.8493 44.3982 35.0704 44.4001C34.5386 44.4001 34.415 44.5293 34.415 45.0685C34.415 46.7668 34.4206 48.4651 34.4188 50.1634C34.4188 50.9049 34.2184 51.1052 33.4751 51.109C32.6175 51.1127 31.7599 51.109 30.9042 51.109C30.159 51.109 30.0017 50.961 30.0017 50.2064C29.998 47.791 29.9998 45.3775 29.9998 42.962C29.9998 42.2149 29.9998 41.466 29.9998 40.7189H29.9961ZM34.4169 37.371C34.4169 37.8541 34.4169 38.3372 34.4169 38.8202C34.4169 39.161 34.5742 39.3501 34.9224 39.3501C35.2969 39.3501 35.6864 39.4063 36.0403 39.3202C36.3436 39.2453 36.7012 39.0693 36.8679 38.824C37.4746 37.9346 37.3866 36.9684 36.9746 36.0247C36.7799 35.5809 36.3811 35.4068 35.913 35.3843C35.634 35.3712 35.3531 35.3712 35.0741 35.3525C34.6191 35.3225 34.4356 35.4667 34.4206 35.9236C34.4057 36.4067 34.4169 36.8898 34.4188 37.3729L34.4169 37.371Z" fill="white"/>
<path d="M34.4162 37.3728C34.4162 36.8897 34.4049 36.4066 34.4199 35.9235C34.4349 35.4666 34.6184 35.3225 35.0734 35.3524C35.3524 35.3711 35.6332 35.3711 35.9122 35.3842C36.3822 35.4048 36.781 35.5808 36.9739 36.0246C37.3877 36.9683 37.4738 37.9345 36.8672 38.8239C36.7005 39.0692 36.3429 39.2452 36.0395 39.3201C35.6857 39.4062 35.2962 39.35 34.9217 39.35C34.5716 39.35 34.4143 39.1609 34.4162 38.8201C34.4162 38.3371 34.4162 37.854 34.4162 37.3709V37.3728Z" fill="#2D5929"/>
</svg>
