<svg width="512" height="512" viewBox="0 0 512 512" fill="none" xmlns="http://www.w3.org/2000/svg">
<path d="M478.608 89.039H211.473C193.034 89.039 178.081 103.99 178.081 122.431C178.081 140.872 193.034 155.823 211.473 155.823H478.608C497.051 155.823 512 140.872 512 122.431C512 103.99 497.052 89.039 478.608 89.039Z" fill="white"/>
<path d="M478.608 222.607H211.473C193.034 222.607 178.081 237.558 178.081 255.999C178.081 274.44 193.034 289.391 211.473 289.391H478.608C497.051 289.391 512 274.44 512 255.999C512 237.558 497.052 222.607 478.608 222.607Z" fill="white"/>
<path d="M478.608 356.175H211.473C193.034 356.175 178.081 371.126 178.081 389.567C178.081 408.008 193.034 422.959 211.473 422.959H478.608C497.051 422.959 512 408.008 512 389.567C512 371.126 497.052 356.175 478.608 356.175Z" fill="white"/>
<path d="M56.989 413.175C63.224 406.966 66.784 398.351 66.784 389.558C66.784 380.787 63.222 372.17 56.989 365.959C50.78 359.748 42.163 356.166 33.392 356.166C24.601 356.166 15.984 359.748 9.775 365.959C3.562 372.172 0 380.764 0 389.558C0 398.351 3.562 406.966 9.775 413.175C15.984 419.386 24.601 422.97 33.392 422.97C42.161 422.972 50.778 419.388 56.989 413.175Z" fill="white"/>
<path d="M33.392 289.382C42.161 289.382 50.778 285.818 56.989 279.607C63.224 273.398 66.784 264.783 66.784 255.99C66.784 247.219 63.222 238.602 56.989 232.391C50.78 226.158 42.163 222.598 33.392 222.598C24.601 222.598 15.984 226.16 9.775 232.391C3.562 238.604 0 247.197 0 255.99C0 264.783 3.562 273.398 9.775 279.607C15.984 285.82 24.601 289.382 33.392 289.382Z" fill="white"/>
<path d="M33.392 155.814C42.161 155.814 50.778 152.25 56.989 146.039C63.222 139.83 66.784 131.215 66.784 122.422C66.784 113.651 63.222 105.034 56.989 98.823C50.78 92.59 42.163 89.03 33.392 89.03C24.601 89.03 15.984 92.592 9.775 98.823C3.562 105.036 0 113.629 0 122.422C0 131.237 3.562 139.83 9.775 146.039C15.984 152.253 24.601 155.814 33.392 155.814Z" fill="white"/>
</svg>
