<svg width="30" height="31" viewBox="0 0 30 31" fill="none" xmlns="http://www.w3.org/2000/svg">
<path d="M8.4375 11.4375H5.625C5.36578 11.4375 5.15625 11.6475 5.15625 11.9062V14.7188C5.15625 14.9775 5.36578 15.1875 5.625 15.1875H8.4375C8.69672 15.1875 8.90625 14.9775 8.90625 14.7188V11.9062C8.90625 11.6475 8.69672 11.4375 8.4375 11.4375ZM7.96875 14.25H6.09375V12.375H7.96875V14.25Z" fill="black"/>
<path d="M13.125 11.4375H10.3125C10.0533 11.4375 9.84375 11.6475 9.84375 11.9062V14.7188C9.84375 14.9775 10.0533 15.1875 10.3125 15.1875H13.125C13.3842 15.1875 13.5938 14.9775 13.5938 14.7188V11.9062C13.5938 11.6475 13.3842 11.4375 13.125 11.4375ZM12.6562 14.25H10.7812V12.375H12.6562V14.25Z" fill="black"/>
<path d="M8.4375 16.125H5.625C5.36578 16.125 5.15625 16.335 5.15625 16.5938V19.4062C5.15625 19.665 5.36578 19.875 5.625 19.875H8.4375C8.69672 19.875 8.90625 19.665 8.90625 19.4062V16.5938C8.90625 16.335 8.69672 16.125 8.4375 16.125ZM7.96875 18.9375H6.09375V17.0625H7.96875V18.9375Z" fill="black"/>
<path d="M13.125 16.125H10.3125C10.0533 16.125 9.84375 16.335 9.84375 16.5938V19.4062C9.84375 19.665 10.0533 19.875 10.3125 19.875H13.125C13.3842 19.875 13.5938 19.665 13.5938 19.4062V16.5938C13.5938 16.335 13.3842 16.125 13.125 16.125ZM12.6562 18.9375H10.7812V17.0625H12.6562V18.9375Z" fill="black"/>
<path d="M10.3125 24.5625H9.375V25.5H10.3125V24.5625Z" fill="black"/>
<path d="M26.25 14.25C26.5092 14.25 26.7188 14.04 26.7188 13.7812V11.9062C26.7188 11.7436 26.6311 11.6077 26.5055 11.5233L26.5102 11.5162L21.832 8.39766C21.9553 8.18812 22.0312 7.94766 22.0312 7.6875C22.0312 7.07719 21.638 6.56156 21.0938 6.3675V1.125H20.1562V6.75C20.1562 7.00875 20.3658 7.21875 20.625 7.21875C20.8837 7.21875 21.0938 7.42922 21.0938 7.6875C21.0938 7.75547 21.0778 7.81922 21.0516 7.87734L20.8847 7.76625C20.7272 7.66125 20.5223 7.66125 20.3648 7.76625L20.1886 7.88391C20.0545 7.68375 19.7911 7.61203 19.5769 7.73062C19.3509 7.85578 19.2684 8.14078 19.3936 8.36766C19.3997 8.37891 19.41 8.38734 19.4166 8.39859L15.4688 11.0306V5.34375C15.4688 5.18719 15.3905 5.04094 15.2602 4.95375C15.1298 4.86656 14.9648 4.85062 14.82 4.91109L3.57 9.59859C3.39516 9.67125 3.28125 9.84187 3.28125 10.0312V28.7812C3.28125 29.04 3.49078 29.25 3.75 29.25H7.03125H11.7188H15C15.2592 29.25 15.4688 29.04 15.4688 28.7812V27.1148L20.625 22.4742L25.7812 27.1148V29.25H26.7188V18.4688V16.5938C26.7188 16.335 26.5092 16.125 26.25 16.125H15.4688V14.25H26.25ZM25.7812 13.3125H15.4688V12.375H25.7812V13.3125ZM20.625 9.09375C20.7811 9.09375 20.9283 9.06234 21.0684 9.015L24.7017 11.4375H16.5483L20.1834 9.01406C20.3245 9.06141 20.4712 9.09375 20.625 9.09375ZM24.8438 21.2812H25.7812V22.2188H24.8438V21.2812ZM24.8438 23.1562H25.7812V24.5625H24.8438V23.1562ZM25.7812 20.3438H24.8438V18.9375H25.7812V20.3438ZM16.4062 22.2188H15.4688V21.2812H16.4062V22.2188ZM15.4688 23.1562H16.4062V24.5625H15.4688V23.1562ZM16.4062 20.3438H15.4688V18.9375H16.4062V20.3438ZM7.5 28.3125V22.2188H11.25V28.3125H7.5ZM14.5312 28.3125H12.1875V21.75C12.1875 21.4913 11.978 21.2812 11.7188 21.2812H7.03125C6.77203 21.2812 6.5625 21.4913 6.5625 21.75V28.3125H4.21875V10.3439L14.5312 6.04688V11.9062V13.7812V16.5938V18.4688V28.3125ZM15.4688 25.5H15.862L15.4688 25.8539V25.5ZM17.3438 24.1664V19.5211L19.9242 21.8438L17.3438 24.1664ZM18.0966 18.9375H23.1534L20.625 21.2133L18.0966 18.9375ZM23.9062 19.5211V24.1664L21.3258 21.8438L23.9062 19.5211ZM25.388 25.5H25.7812V25.8539L25.388 25.5ZM25.7812 17.0625V18H15.4688V17.0625H25.7812Z" fill="black"/>
</svg>
