<svg width="30" height="31" viewBox="0 0 30 31" fill="none" xmlns="http://www.w3.org/2000/svg">
<g clip-path="url(#clip0_42_222)">
<g clip-path="url(#clip1_42_222)">
<path fill-rule="evenodd" clip-rule="evenodd" d="M4.79778 22.4315C4.55173 22.4315 4.35841 22.2382 4.35841 21.9922V12.3085C4.35841 12.0625 4.55173 11.8691 4.79778 11.8691C5.04383 11.8691 5.23715 12.0625 5.23715 12.3085V22.0097C5.202 22.2558 5.04383 22.4315 4.79778 22.4315ZM2.37247 22.4315C2.144 22.4315 1.93311 22.2382 1.93311 21.9922V12.3085C1.93311 12.0625 2.144 11.8691 2.37247 11.8691C2.61852 11.8691 2.81184 12.0625 2.81184 12.3085V22.0097C2.79427 22.2558 2.60094 22.4315 2.37247 22.4315Z" fill="black"/>
<path fill-rule="evenodd" clip-rule="evenodd" d="M4.79778 10.6037C4.55173 10.6037 4.35841 10.4104 4.35841 10.1644V4.68107C4.35841 4.43502 4.55173 4.2417 4.79778 4.2417C5.04383 4.2417 5.23715 4.43502 5.23715 4.68107V10.1995C5.202 10.4104 5.04383 10.6037 4.79778 10.6037ZM2.37247 10.6037C2.144 10.6037 1.93311 10.4104 1.93311 10.1644V4.68107C1.93311 4.43502 2.144 4.2417 2.37247 4.2417C2.61852 4.2417 2.81184 4.43502 2.81184 4.68107V10.1995C2.79427 10.4104 2.60094 10.6037 2.37247 10.6037Z" fill="black"/>
<path fill-rule="evenodd" clip-rule="evenodd" d="M4.79778 2.97654C4.55173 2.97654 4.35841 2.78322 4.35841 2.53718V1.23665H2.79426V2.53718C2.79426 2.78322 2.60094 2.97654 2.35489 2.97654C2.10885 2.97654 1.91553 2.78322 1.91553 2.53718V0.814856C1.91553 0.56881 2.10885 0.375488 2.35489 0.375488H4.76263C5.00867 0.375488 5.20199 0.56881 5.20199 0.814856V2.53718C5.20199 2.78322 5.04382 2.97654 4.79778 2.97654Z" fill="black"/>
<path fill-rule="evenodd" clip-rule="evenodd" d="M26.8891 27.2298C26.643 27.2298 26.4497 27.0365 26.4497 26.7904V24.1366C26.4497 23.8906 26.643 23.6973 26.8891 23.6973C27.1351 23.6973 27.3285 23.8906 27.3285 24.1366V26.7904C27.2933 27.0365 27.1 27.2298 26.8891 27.2298ZM24.4462 27.2298C24.2002 27.2298 24.0068 27.0365 24.0068 26.7904V24.1366C24.0068 23.8906 24.2002 23.6973 24.4462 23.6973C24.6922 23.6973 24.8856 23.8906 24.8856 24.1366V26.7904C24.8856 27.0365 24.6922 27.2298 24.4462 27.2298Z" fill="black"/>
<path fill-rule="evenodd" clip-rule="evenodd" d="M26.8539 22.4315C26.6079 22.4315 26.4497 22.2382 26.4146 22.0097L26.397 12.3085C26.397 12.0625 26.5903 11.8691 26.8012 11.8691C27.0473 11.8691 27.223 12.0625 27.2406 12.2909L27.2757 21.9922C27.2757 22.2382 27.0824 22.4315 26.8539 22.4315ZM24.4286 22.4315C24.1826 22.4315 23.9893 22.2382 23.9893 21.9922V12.3085C23.9893 12.0625 24.1826 11.8691 24.4286 11.8691C24.6571 11.8691 24.868 12.0625 24.868 12.3085V22.0097C24.8328 22.2558 24.6395 22.4315 24.4286 22.4315Z" fill="black"/>
<path fill-rule="evenodd" clip-rule="evenodd" d="M24.4286 10.6037C24.1826 10.6037 23.9893 10.4104 23.9893 10.1644V4.68107C23.9893 4.43502 24.1826 4.2417 24.4286 4.2417C24.6571 4.2417 24.868 4.43502 24.868 4.68107V10.1995C24.8328 10.4104 24.6395 10.6037 24.4286 10.6037Z" fill="black"/>
<path fill-rule="evenodd" clip-rule="evenodd" d="M26.8896 10.6037C26.6435 10.6037 26.4678 10.4104 26.4502 10.1995L26.415 4.68107C26.415 4.43502 26.6084 4.2417 26.8368 4.2417C27.0829 4.2417 27.241 4.43502 27.2762 4.66349L27.3289 10.1995C27.3289 10.4104 27.1356 10.6037 26.8896 10.6037Z" fill="black"/>
<path fill-rule="evenodd" clip-rule="evenodd" d="M26.8539 2.9765C26.6079 2.9765 26.4146 2.78318 26.4146 2.53713V1.02571H24.868V2.53713C24.868 2.78318 24.6571 2.9765 24.4286 2.9765C24.1826 2.9765 23.9893 2.78318 23.9893 2.53713V0.603918C23.9893 0.375447 24.1826 0.164551 24.4286 0.164551H26.8364C27.0824 0.164551 27.2757 0.375447 27.2757 0.603918V2.53713C27.2757 2.78318 27.0824 2.9765 26.8539 2.9765Z" fill="black"/>
<path fill-rule="evenodd" clip-rule="evenodd" d="M28.3304 5.10293H1.66963C0.861198 5.10293 0.193359 4.41752 0.193359 3.60908C0.193359 2.80065 0.861198 2.11523 1.66963 2.11523H28.3304C29.1213 2.11523 29.8067 2.78307 29.8067 3.60908C29.7891 4.43509 29.1213 5.10293 28.3304 5.10293ZM1.66963 2.97639C1.33571 2.97639 1.03694 3.27516 1.03694 3.60908C1.03694 3.943 1.33571 4.24177 1.66963 4.24177H28.3304C28.6644 4.24177 28.9631 3.943 28.9631 3.60908C28.9631 3.27516 28.6644 2.97639 28.3304 2.97639H1.66963Z" fill="black"/>
<path fill-rule="evenodd" clip-rule="evenodd" d="M27.5922 12.7304H2.37247C2.144 12.7304 1.93311 12.5371 1.93311 12.291V10.1996C1.93311 9.95358 2.144 9.76025 2.37247 9.76025H27.5922C27.8382 9.76025 28.0315 9.95358 28.0315 10.1996V12.3086C28.0315 12.5371 27.8382 12.7304 27.5922 12.7304ZM2.79427 11.8692H27.1528V10.6038H2.79427V11.8692Z" fill="black"/>
<path fill-rule="evenodd" clip-rule="evenodd" d="M28.3304 24.558H1.66963C0.843623 24.558 0.193359 23.8902 0.193359 23.0642C0.193359 22.2382 0.861198 21.5879 1.66963 21.5879H28.3304C29.1213 21.5879 29.8067 22.2557 29.8067 23.0642C29.7891 23.8902 29.1213 24.558 28.3304 24.558ZM1.66963 22.4315C1.30056 22.4315 1.03694 22.7302 1.03694 23.0642C1.03694 23.4157 1.33571 23.6969 1.66963 23.6969H28.3304C28.6644 23.6969 28.9631 23.4157 28.9631 23.0642C28.9631 22.6951 28.6644 22.4315 28.3304 22.4315H1.66963Z" fill="black"/>
<path fill-rule="evenodd" clip-rule="evenodd" d="M4.79788 22.4319C4.63971 22.4319 4.49911 22.3616 4.42881 22.221C4.30579 21.9926 4.41124 21.7465 4.60456 21.6235L14.3937 16.4038C14.5167 16.3335 14.6749 16.3335 14.7979 16.4038L24.587 21.6235C24.8155 21.7465 24.8858 21.9926 24.7627 22.221C24.6397 22.4319 24.3937 22.5022 24.1828 22.3792L14.5694 17.2825L4.9912 22.3792C4.93848 22.4319 4.86818 22.4319 4.79788 22.4319Z" fill="black"/>
<path fill-rule="evenodd" clip-rule="evenodd" d="M14.5872 17.2473C14.5521 17.2473 14.4818 17.2122 14.4291 17.1946L4.62238 12.7131C4.41149 12.6076 4.30604 12.3616 4.41149 12.1507C4.49936 11.9222 4.7454 11.8343 4.9563 11.9222L14.5872 16.3334L24.2182 11.9222C24.4466 11.8343 24.6927 11.9222 24.7806 12.1507C24.886 12.3616 24.7806 12.6076 24.5697 12.7131L14.763 17.1946C14.7103 17.2122 14.6751 17.2473 14.5872 17.2473Z" fill="black"/>
<path fill-rule="evenodd" clip-rule="evenodd" d="M4.79778 27.2649C4.55173 27.2649 4.35841 27.0716 4.35841 26.8256V24.1191C4.35841 23.873 4.55173 23.6797 4.79778 23.6797C5.04383 23.6797 5.23715 23.873 5.23715 24.1191V26.8256C5.202 27.0716 5.04383 27.2649 4.79778 27.2649ZM2.37247 27.2649C2.144 27.2649 1.93311 27.0716 1.93311 26.8256V24.1191C1.93311 23.873 2.144 23.6797 2.37247 23.6797C2.61852 23.6797 2.81184 23.873 2.81184 24.1191V26.8256C2.79427 27.0716 2.60094 27.2649 2.37247 27.2649Z" fill="black"/>
<path fill-rule="evenodd" clip-rule="evenodd" d="M25.6593 30.1295C24.4993 30.1295 23.5503 29.1805 23.5503 28.0206C23.5503 26.8255 24.4993 25.8765 25.6593 25.8765C26.8543 25.8765 27.8034 26.8431 27.8034 28.0206C27.8034 29.1805 26.8368 30.1295 25.6593 30.1295ZM25.6593 26.7201C24.9563 26.7201 24.3939 27.3176 24.3939 28.0206C24.3939 28.7236 24.9563 29.286 25.6593 29.286C26.3798 29.286 26.9598 28.7236 26.9598 28.0206C26.9598 27.3176 26.3798 26.7201 25.6593 26.7201Z" fill="black"/>
<path fill-rule="evenodd" clip-rule="evenodd" d="M3.56746 30.1823C2.40753 30.1823 1.4585 29.2157 1.4585 28.0382C1.4585 26.8782 2.40753 25.9116 3.56746 25.9116C4.74496 25.9116 5.694 26.8782 5.694 28.0382C5.71157 29.2157 4.74496 30.1823 3.56746 30.1823ZM3.56746 26.7552C2.86447 26.7552 2.30208 27.3176 2.30208 28.0206C2.30208 28.7236 2.86447 29.3035 3.56746 29.3035C4.28802 29.3035 4.85041 28.7236 4.85041 28.0206C4.86799 27.3176 4.3056 26.7552 3.56746 26.7552Z" fill="black"/>
</g>
</g>
<defs>
<clipPath id="clip0_42_222">
<rect width="30" height="30" fill="white" transform="translate(0 0.1875)"/>
</clipPath>
<clipPath id="clip1_42_222">
<rect width="30" height="30" fill="white" transform="translate(0 0.182129)"/>
</clipPath>
</defs>
</svg>
