<svg width="30" height="31" viewBox="0 0 30 31" fill="none" xmlns="http://www.w3.org/2000/svg">
<path d="M6.43423 21.5092H7.22695L6.20381 24.9497C6.13318 25.1873 6.26844 25.4372 6.50605 25.5078C6.54884 25.5207 6.59193 25.5264 6.63413 25.5264C6.82745 25.5264 7.0064 25.4004 7.06445 25.2056L8.16361 21.5089H11.274L12.3732 25.2056C12.4312 25.4004 12.6099 25.5264 12.8035 25.5264C12.846 25.5264 12.8891 25.5204 12.9316 25.5078C13.1692 25.4372 13.3045 25.1873 13.2338 24.9497L12.2107 21.5092H13.0178C13.2658 21.5092 13.4666 21.3081 13.4666 21.0603C13.4666 20.8125 13.2658 20.6114 13.0178 20.6114H11.9438L11.0828 17.7162C11.0747 17.689 11.0637 17.6638 11.0514 17.6396C11.9692 17.1706 12.6003 16.2178 12.6003 15.1181C12.6003 13.8008 11.6948 12.6935 10.4741 12.379V10.2873C10.4741 10.0392 10.2733 9.83838 10.0253 9.83838C9.77717 9.83838 9.57637 10.0392 9.57637 10.2873V12.2961C8.10465 12.3958 6.93667 13.6215 6.93667 15.1181C6.93667 16.1876 7.53278 17.1198 8.40989 17.6016C8.38715 17.6366 8.3674 17.674 8.35483 17.7162L7.49388 20.6114H6.43423C6.18615 20.6114 5.98535 20.8125 5.98535 21.0603C5.98535 21.3081 6.18615 21.5092 6.43423 21.5092ZM7.83443 15.1181C7.83443 14.0518 8.70196 13.184 9.76849 13.184C10.835 13.184 11.7026 14.0515 11.7026 15.1181C11.7026 16.1846 10.835 17.0521 9.76849 17.0521C8.70196 17.0521 7.83443 16.1846 7.83443 15.1181ZM9.21548 17.9723C9.22296 17.9475 9.22685 17.9224 9.22984 17.8972C9.4043 17.931 9.58415 17.9502 9.76849 17.9502C9.91932 17.9502 10.0662 17.9349 10.2108 17.9122C10.2138 17.9322 10.2162 17.9523 10.2222 17.9723L11.0071 20.6114H8.43084L9.21548 17.9723Z" fill="black"/>
<path d="M16.01 25.3997H18.4041C18.6518 25.3997 18.8529 25.1986 18.8529 24.9508V12.9792C18.8529 12.9208 18.8416 12.8631 18.8194 12.8092L17.6224 9.88584C17.5536 9.71736 17.3896 9.60693 17.2071 9.60693C17.0245 9.60693 16.8608 9.71706 16.7917 9.88584L15.5947 12.8092C15.5704 12.8682 15.5597 12.9295 15.5612 12.9894V24.9508C15.5612 25.1986 15.7623 25.3997 16.01 25.3997ZM16.4589 24.5019V23.6041H17.9552V24.5019H16.4589ZM17.2071 11.2406L17.9552 13.0678V22.7064H16.4589V13.0678L17.2071 11.2406Z" fill="black"/>
<path d="M21.696 5.05029H3.74087C3.49279 5.05029 3.29199 5.25109 3.29199 5.49917V28.5416C3.29199 28.7893 3.49279 28.9904 3.74087 28.9904H21.696C21.9438 28.9904 22.1449 28.7893 22.1449 28.5416V5.49917C22.1449 5.25109 21.9438 5.05029 21.696 5.05029ZM21.2471 28.0927H4.18975V5.94805H21.2471V28.0927Z" fill="black"/>
<path d="M25.2868 1.45947H7.33169C7.08361 1.45947 6.88281 1.66027 6.88281 1.90835V4.30237C6.88281 4.55045 7.08361 4.75124 7.33169 4.75124C7.57977 4.75124 7.78057 4.55045 7.78057 4.30237V2.35723H24.8379V24.5019H23.192C22.9443 24.5019 22.7432 24.703 22.7432 24.9507C22.7432 25.1985 22.9443 25.3996 23.192 25.3996H25.2868C25.5346 25.3996 25.7357 25.1985 25.7357 24.9507V1.90835C25.7357 1.66027 25.5346 1.45947 25.2868 1.45947Z" fill="black"/>
</svg>
