<svg width="30" height="31" viewBox="0 0 30 31" fill="none" xmlns="http://www.w3.org/2000/svg">
<g clip-path="url(#clip0_42_259)">
<path d="M13.8198 7.29501C13.8725 7.32693 13.931 7.34815 13.9919 7.35746C14.0527 7.36677 14.1149 7.36399 14.1747 7.34928C14.2345 7.33456 14.2908 7.3082 14.3405 7.27171C14.3901 7.23521 14.432 7.18929 14.4639 7.13657L15.0001 6.24969L25.0881 22.9302C25.1525 23.0365 25.2565 23.1129 25.3773 23.1426C25.498 23.1723 25.6256 23.1528 25.7319 23.0884C25.8383 23.024 25.9147 22.92 25.9444 22.7992C25.974 22.6785 25.9545 22.5509 25.8901 22.4445L15.4009 5.10079C15.3561 5.03582 15.2962 4.9827 15.2264 4.946C15.1565 4.90931 15.0788 4.89014 14.9999 4.89014C14.921 4.89014 14.8433 4.90931 14.7734 4.946C14.7036 4.9827 14.6437 5.03582 14.5989 5.10079L13.6614 6.65141C13.5971 6.75777 13.5776 6.88532 13.6073 7.00602C13.6371 7.12671 13.7135 7.23066 13.8198 7.29501Z" fill="black"/>
<path d="M28.2731 25.5241C28.0827 25.4608 27.8847 25.4228 27.6844 25.4112L26.6508 23.703C26.6201 23.6481 26.5786 23.6 26.5289 23.5614C26.4792 23.5229 26.4222 23.4948 26.3614 23.4787C26.3006 23.4626 26.2371 23.459 26.1749 23.4679C26.1126 23.4769 26.0528 23.4983 25.999 23.5309C25.9452 23.5635 25.8985 23.6065 25.8616 23.6575C25.8248 23.7086 25.7986 23.7664 25.7847 23.8278C25.7707 23.8891 25.7692 23.9526 25.7803 24.0146C25.7914 24.0765 25.8148 24.1355 25.8492 24.1882L26.693 25.5823C26.5657 25.6342 26.4427 25.6959 26.325 25.7669C26.2486 25.8138 26.1694 25.8504 26.0906 25.8902L15.4031 7.91648C15.3585 7.85074 15.2985 7.79692 15.2283 7.75972C15.1581 7.72252 15.0799 7.70307 15.0005 7.70307C14.921 7.70307 14.8428 7.72252 14.7726 7.75972C14.7024 7.79692 14.6424 7.85074 14.5978 7.91648L4.40625 25.0535C4.19719 25.0399 3.98016 25.031 3.75 25.031C3.71109 25.031 3.67828 25.0366 3.63984 25.0371L13.7006 8.39882C13.765 8.29241 13.7845 8.16476 13.7548 8.04398C13.7251 7.92319 13.6486 7.81916 13.5422 7.75476C13.4358 7.69036 13.3081 7.67088 13.1873 7.70059C13.0666 7.7303 12.9625 7.80678 12.8981 7.9132L10.3125 12.1896V10.4998C10.4368 10.4998 10.556 10.4504 10.644 10.3625C10.7319 10.2746 10.7812 10.1553 10.7812 10.031V8.62476C10.7812 8.50044 10.7319 8.38121 10.644 8.29331C10.556 8.2054 10.4368 8.15601 10.3125 8.15601H6.5625C6.43818 8.15601 6.31895 8.2054 6.23104 8.29331C6.14314 8.38121 6.09375 8.50044 6.09375 8.62476V10.031C6.09375 10.1553 6.14314 10.2746 6.23104 10.3625C6.31895 10.4504 6.43818 10.4998 6.5625 10.4998V11.4373C6.5625 11.5616 6.61189 11.6808 6.69979 11.7687C6.7877 11.8566 6.90693 11.906 7.03125 11.906C7.15557 11.906 7.2748 11.8566 7.36271 11.7687C7.45061 11.6808 7.5 11.5616 7.5 11.4373V10.4998H9.375V13.7402L7.5 16.841V12.8435C7.5 12.7192 7.45061 12.6 7.36271 12.5121C7.2748 12.4241 7.15557 12.3748 7.03125 12.3748C6.90693 12.3748 6.7877 12.4241 6.69979 12.5121C6.61189 12.6 6.5625 12.7192 6.5625 12.8435V18.3916L2.44875 25.1951C1.76184 25.3862 1.15388 25.7916 0.713427 26.3523C0.272973 26.913 0.0230289 27.5996 0 28.3123C0 28.4366 0.049386 28.5558 0.137294 28.6437C0.225201 28.7316 0.34443 28.781 0.46875 28.781H2.34375C2.46807 28.781 2.5873 28.7316 2.67521 28.6437C2.76311 28.5558 2.8125 28.4366 2.8125 28.3123C2.8125 28.1879 2.76311 28.0687 2.67521 27.9808C2.5873 27.8929 2.46807 27.8435 2.34375 27.8435H0.999375C1.15922 27.1582 1.72734 25.9685 3.75 25.9685C5.10094 25.9685 5.79234 26.2184 6.135 26.4284C6.46692 26.637 6.84736 26.7557 7.23901 26.773C7.63067 26.7903 8.02008 26.7054 8.36906 26.5268C8.69663 26.3246 9.06889 26.206 9.45307 26.1815C9.83725 26.1569 10.2216 26.2272 10.5722 26.3862C11.6063 26.9018 12.533 26.5873 13.35 26.3084C14.2791 25.9919 15.0844 25.7187 16.1653 26.3684C17.5495 27.1994 18.8213 26.7499 19.8431 26.388C20.865 26.0262 21.5353 25.8255 22.2188 26.3412C22.3438 26.4349 22.4664 26.5209 22.5867 26.599C23.2213 26.9971 23.9566 27.2053 24.7057 27.199C25.4548 27.1928 26.1865 26.9724 26.8144 26.5638C26.9833 26.4504 27.1762 26.3776 27.3779 26.351C27.5796 26.3244 27.7848 26.3448 27.9773 26.4105C28.2602 26.5374 28.5045 26.7368 28.6856 26.9884C28.8667 27.24 28.9781 27.535 29.0086 27.8435H3.75C3.62568 27.8435 3.50645 27.8929 3.41854 27.9808C3.33064 28.0687 3.28125 28.1879 3.28125 28.3123C3.28125 28.4366 3.33064 28.5558 3.41854 28.6437C3.50645 28.7316 3.62568 28.781 3.75 28.781H29.5312C29.6556 28.781 29.7748 28.7316 29.8627 28.6437C29.9506 28.5558 30 28.4366 30 28.3123C30 28.2223 29.9803 26.0932 28.2731 25.5241ZM7.03125 9.56226V9.09351H9.84375V9.56226H7.03125ZM6.91828 22.6643C6.95477 22.6769 6.99275 22.6846 7.03125 22.6873H9.84375C9.96807 22.6873 10.0873 22.6379 10.1752 22.55C10.2631 22.4621 10.3125 22.3428 10.3125 22.2185C10.3125 22.0942 10.2631 21.975 10.1752 21.8871C10.0873 21.7991 9.96807 21.7498 9.84375 21.7498H7.4625L7.74094 21.281H11.25V22.6873C11.25 22.8116 11.2994 22.9308 11.3873 23.0187C11.4752 23.1066 11.5944 23.156 11.7188 23.156H16.4062C16.5306 23.156 16.6498 23.1066 16.7377 23.0187C16.8256 22.9308 16.875 22.8116 16.875 22.6873C16.875 22.5629 16.8256 22.4437 16.7377 22.3558C16.6498 22.2679 16.5306 22.2185 16.4062 22.2185H15.4688V19.8748H17.8125V22.2185C17.6882 22.2185 17.569 22.2679 17.481 22.3558C17.3931 22.4437 17.3438 22.5629 17.3438 22.6873C17.3438 22.8116 17.3931 22.9308 17.481 23.0187C17.569 23.1066 17.6882 23.156 17.8125 23.156H18.2812C18.4056 23.156 18.5248 23.1066 18.6127 23.0187C18.7006 22.9308 18.75 22.8116 18.75 22.6873V21.281H22.2586L22.8164 22.2185H20.625C20.5007 22.2185 20.3815 22.2679 20.2935 22.3558C20.2056 22.4437 20.1562 22.5629 20.1562 22.6873C20.1562 22.8116 20.2056 22.9308 20.2935 23.0187C20.3815 23.1066 20.5007 23.156 20.625 23.156H23.3737L23.655 23.6248H6.34734L6.91828 22.6643ZM8.57812 19.8748H9.84375C9.96807 19.8748 10.0873 19.8254 10.1752 19.7375C10.2631 19.6496 10.3125 19.5303 10.3125 19.406C10.3125 19.2817 10.2631 19.1625 10.1752 19.0746C10.0873 18.9866 9.96807 18.9373 9.84375 18.9373H9.135L9.69234 17.9998H11.25V20.3435H8.29688L8.57812 19.8748ZM11.6442 14.7185H18.3567L19.7503 17.0623H18.75V16.1248C18.75 16.0004 18.7006 15.8812 18.6127 15.7933C18.5248 15.7054 18.4056 15.656 18.2812 15.656H11.7188C11.5944 15.656 11.4752 15.7054 11.3873 15.7933C11.2994 15.8812 11.25 16.0004 11.25 16.1248V17.0623H10.2497L11.6442 14.7185ZM12.4805 13.3123H14.5312C14.6556 13.3123 14.7748 13.2629 14.8627 13.175C14.9506 13.0871 15 12.9678 15 12.8435C15 12.7192 14.9506 12.6 14.8627 12.5121C14.7748 12.4241 14.6556 12.3748 14.5312 12.3748H13.0369L13.3158 11.906H16.6842L17.7994 13.781H12.2006L12.4805 13.3123ZM12.1875 22.2185V19.8748H14.5312V22.2185H12.1875ZM12.1875 18.9373V16.5935H14.5312V18.9373H12.1875ZM15.4688 16.5935H17.8125V18.9373H15.4688V16.5935ZM18.75 19.406H19.6875C19.8118 19.406 19.931 19.3566 20.019 19.2687C20.1069 19.1808 20.1562 19.0616 20.1562 18.9373C20.1562 18.8129 20.1069 18.6937 20.019 18.6058C19.931 18.5179 19.8118 18.4685 19.6875 18.4685H18.75V17.9998H20.3077L21.7031 20.3435H18.75V19.406ZM15 9.07336L16.125 10.9685H13.875L15 9.07336ZM23.0986 25.8162C22.995 25.7477 22.8886 25.6755 22.7812 25.5935C21.6605 24.7526 20.5284 25.1529 19.53 25.5063C18.5648 25.8476 17.655 26.1696 16.6477 25.5668C15.1903 24.6921 14.0025 25.098 13.0472 25.4234C12.2803 25.6849 11.6742 25.8921 10.9908 25.549C10.5088 25.3233 9.97896 25.2185 9.44731 25.2437C8.91565 25.269 8.39817 25.4235 7.93969 25.6938C7.73396 25.7973 7.50493 25.8458 7.27491 25.8344C7.0449 25.8231 6.82174 25.7524 6.62719 25.6291C6.25456 25.4126 5.84757 25.2615 5.42391 25.1824L5.79 24.5623H24.2119L25.1883 26.2029C24.4679 26.3496 23.7188 26.2109 23.0986 25.8162Z" fill="black"/>
<path d="M2.34384 7.21852C2.67422 7.2178 2.99852 7.12964 3.28379 6.963C3.56906 6.79637 3.80515 6.55719 3.96806 6.26977C4.00837 6.26509 4.04869 6.25946 4.08947 6.2529C4.28713 6.5591 4.56076 6.80887 4.88368 6.97785C5.2066 7.14683 5.56779 7.22926 5.93205 7.2171C6.29631 7.20494 6.6512 7.09861 6.96213 6.90847C7.27306 6.71833 7.52943 6.45088 7.70623 6.13217C7.88303 5.81347 7.97424 5.45439 7.97097 5.08995C7.96769 4.7255 7.87005 4.36812 7.68754 4.05264C7.50504 3.73717 7.24392 3.47436 6.92962 3.28984C6.61532 3.10532 6.25857 3.00538 5.89415 2.99977C5.68659 2.52346 5.32648 2.12972 4.87055 1.88055C4.41462 1.63139 3.88876 1.54095 3.37578 1.62348C2.8628 1.70602 2.39184 1.95683 2.03708 2.33643C1.68231 2.71604 1.46388 3.20286 1.41619 3.72024C1.0568 3.92441 0.775122 4.24181 0.615123 4.62292C0.455124 5.00403 0.425809 5.42739 0.531752 5.82691C0.637695 6.22643 0.872935 6.57963 1.20075 6.83138C1.52857 7.08313 1.93051 7.21926 2.34384 7.21852ZM2.03775 4.46321C2.13333 4.42993 2.21558 4.36661 2.27219 4.28271C2.3288 4.1988 2.35673 4.09883 2.35181 3.99774C2.35153 3.97734 2.34886 3.95705 2.34384 3.93727C2.34337 3.59333 2.46922 3.26119 2.69748 3.00392C2.92575 2.74664 3.24054 2.58215 3.58209 2.54167C3.92364 2.50119 4.26817 2.58754 4.55025 2.78432C4.83234 2.98111 5.03234 3.27463 5.11228 3.60915C5.14028 3.72529 5.21158 3.82635 5.31159 3.89169C5.41161 3.95703 5.5328 3.98172 5.6504 3.96071C5.81184 3.92809 5.97834 3.92987 6.13904 3.96593C6.29974 4.00198 6.45104 4.07151 6.58307 4.16997C6.71509 4.26843 6.82488 4.39362 6.90527 4.53736C6.98567 4.6811 7.03486 4.84018 7.04964 5.00421C7.06441 5.16825 7.04445 5.33355 6.99105 5.48935C6.93765 5.64515 6.852 5.78795 6.7397 5.90842C6.6274 6.02889 6.49097 6.12435 6.3393 6.18855C6.18763 6.25275 6.02413 6.28426 5.85947 6.28102C5.62432 6.28147 5.39454 6.21067 5.20042 6.07796C5.00629 5.94525 4.85692 5.75686 4.77197 5.53759C4.73745 5.4501 4.67742 5.37503 4.59968 5.32211C4.52194 5.2692 4.43007 5.24089 4.33603 5.24087C4.28601 5.24102 4.23634 5.24909 4.18884 5.26477C4.05445 5.31216 3.9136 5.33872 3.77119 5.34352C3.75431 5.34352 3.69853 5.33555 3.68165 5.33509C3.58116 5.3285 3.48136 5.35588 3.39831 5.41284C3.31525 5.4698 3.25375 5.55303 3.22369 5.64915C3.17224 5.79905 3.08349 5.93339 2.9658 6.03951C2.8481 6.14564 2.70532 6.22007 2.55092 6.25578C2.39652 6.29149 2.23556 6.28732 2.08322 6.24365C1.93087 6.19999 1.79215 6.11826 1.68011 6.00618C1.56807 5.89409 1.4864 5.75534 1.44279 5.60297C1.39918 5.45061 1.39508 5.28966 1.43085 5.13527C1.46662 4.98088 1.54111 4.83813 1.64728 4.72048C1.75346 4.60282 1.88783 4.51459 2.03775 4.46321Z" fill="black"/>
<path d="M21.0938 6.75C21.3719 6.75 21.6438 6.66753 21.875 6.513C22.1063 6.35848 22.2865 6.13886 22.393 5.8819C22.4994 5.62494 22.5272 5.34219 22.473 5.06941C22.4187 4.79662 22.2848 4.54605 22.0881 4.34938C21.8915 4.15271 21.6409 4.01878 21.3681 3.96452C21.0953 3.91026 20.8126 3.93811 20.5556 4.04455C20.2986 4.15098 20.079 4.33122 19.9245 4.56248C19.77 4.79374 19.6875 5.06562 19.6875 5.34375C19.6875 5.71671 19.8357 6.0744 20.0994 6.33812C20.3631 6.60184 20.7208 6.75 21.0938 6.75ZM21.0938 4.875C21.1865 4.875 21.2771 4.90249 21.3542 4.954C21.4313 5.00551 21.4913 5.07871 21.5268 5.16437C21.5623 5.25002 21.5716 5.34427 21.5535 5.4352C21.5354 5.52613 21.4908 5.60965 21.4252 5.67521C21.3597 5.74076 21.2761 5.78541 21.1852 5.80349C21.0943 5.82158 21 5.8123 20.9144 5.77682C20.8287 5.74134 20.7555 5.68126 20.704 5.60417C20.6525 5.52709 20.625 5.43646 20.625 5.34375C20.625 5.21943 20.6744 5.1002 20.7623 5.01229C20.8502 4.92439 20.9694 4.875 21.0938 4.875Z" fill="black"/>
<path d="M27.1875 11.9063C26.9094 11.9062 26.6375 11.9887 26.4062 12.1432C26.175 12.2978 25.9947 12.5174 25.8883 12.7744C25.7819 13.0313 25.754 13.3141 25.8083 13.5868C25.8625 13.8596 25.9965 14.1102 26.1931 14.3069C26.3898 14.5035 26.6404 14.6375 26.9132 14.6917C27.1859 14.746 27.4687 14.7181 27.7256 14.6117C27.9826 14.5053 28.2022 14.325 28.3568 14.0938C28.5113 13.8625 28.5938 13.5906 28.5938 13.3125C28.5938 12.9395 28.4456 12.5819 28.1819 12.3181C27.9181 12.0544 27.5605 11.9063 27.1875 11.9063ZM27.1875 13.7812C27.0948 13.7812 27.0042 13.7538 26.9271 13.7023C26.85 13.6507 26.7899 13.5775 26.7544 13.4919C26.719 13.4062 26.7097 13.312 26.7278 13.2211C26.7458 13.1301 26.7905 13.0466 26.856 12.981C26.9216 12.9155 27.0051 12.8708 27.0961 12.8528C27.187 12.8347 27.2812 12.844 27.3669 12.8794C27.4525 12.9149 27.5257 12.975 27.5773 13.0521C27.6288 13.1292 27.6563 13.2198 27.6563 13.3125C27.6563 13.4368 27.6069 13.556 27.519 13.644C27.431 13.7319 27.3118 13.7812 27.1875 13.7812Z" fill="black"/>
<path d="M2.34375 16.5938C2.06562 16.5938 1.79374 16.6762 1.56248 16.8307C1.33122 16.9853 1.15098 17.2049 1.04455 17.4619C0.938109 17.7188 0.910261 18.0016 0.964521 18.2743C1.01878 18.5471 1.15271 18.7977 1.34938 18.9944C1.54605 19.191 1.79662 19.325 2.0694 19.3792C2.34219 19.4335 2.62494 19.4056 2.8819 19.2992C3.13886 19.1928 3.35848 19.0125 3.513 18.7813C3.66753 18.55 3.75 18.2781 3.75 18C3.75 17.627 3.60184 17.2694 3.33812 17.0056C3.0744 16.7419 2.71671 16.5938 2.34375 16.5938ZM2.34375 18.4688C2.25104 18.4688 2.16041 18.4413 2.08333 18.3898C2.00624 18.3382 1.94616 18.265 1.91068 18.1794C1.8752 18.0937 1.86592 17.9995 1.88401 17.9086C1.90209 17.8176 1.94674 17.7341 2.01229 17.6685C2.07785 17.603 2.16137 17.5583 2.2523 17.5403C2.34323 17.5222 2.43748 17.5315 2.52313 17.5669C2.60879 17.6024 2.682 17.6625 2.7335 17.7396C2.78501 17.8167 2.8125 17.9073 2.8125 18C2.8125 18.1243 2.76311 18.2435 2.67521 18.3315C2.5873 18.4194 2.46807 18.4688 2.34375 18.4688Z" fill="black"/>
<path d="M27.1875 4.875C27.5583 4.875 27.9209 4.76503 28.2292 4.55901C28.5375 4.35298 28.7779 4.06014 28.9198 3.71753C29.0617 3.37492 29.0988 2.99792 29.0265 2.63421C28.9541 2.27049 28.7755 1.9364 28.5133 1.67418C28.2511 1.41195 27.917 1.23338 27.5533 1.16103C27.1896 1.08868 26.8126 1.12581 26.47 1.26773C26.1274 1.40964 25.8345 1.64996 25.6285 1.95831C25.4225 2.26665 25.3125 2.62916 25.3125 3C25.3125 3.49728 25.51 3.9742 25.8617 4.32583C26.2133 4.67746 26.6902 4.875 27.1875 4.875ZM27.1875 2.0625C27.3729 2.0625 27.5542 2.11748 27.7083 2.2205C27.8625 2.32351 27.9827 2.46993 28.0536 2.64123C28.1246 2.81254 28.1432 3.00104 28.107 3.1829C28.0708 3.36476 27.9815 3.5318 27.8504 3.66291C27.7193 3.79403 27.5523 3.88331 27.3704 3.91949C27.1885 3.95566 27 3.9371 26.8287 3.86614C26.6574 3.79518 26.511 3.67502 26.408 3.52085C26.305 3.36668 26.25 3.18542 26.25 3C26.25 2.75136 26.3488 2.5129 26.5246 2.33709C26.7004 2.16127 26.9389 2.0625 27.1875 2.0625Z" fill="black"/>
</g>
<defs>
<clipPath id="clip0_42_259">
<rect width="30" height="30" fill="white" transform="translate(0 0.1875)"/>
</clipPath>
</defs>
</svg>
