<svg width="27" height="25" viewBox="0 0 27 25" fill="none" xmlns="http://www.w3.org/2000/svg">
<path d="M2.21674 0C1.00919 0 0.0170344 1.02783 0.0170344 2.27869V4.34641C-0.00567815 4.45377 -0.00567815 4.56537 0.0170344 4.67308V17.4923L0.0485698 17.6053C0.530379 19.2168 1.15601 20.8186 1.69763 22.4211L2.31423 24.2629L3.06276 22.4774C3.71783 20.9121 4.41498 19.0842 4.98141 17.6736L5.0359 17.5251V2.2788C5.0359 1.02794 4.04374 0 2.8362 0H2.21674ZM7.06354 0.279308V24.3432H7.6486V24.375H8.38565H15.2888V24.3432H21.9159C27.7148 18.336 20.451 25.9252 26.25 19.918V0.2792L7.06354 0.279308ZM2.21674 1.52706H2.83621C3.25563 1.52706 3.57327 1.84417 3.57327 2.27869V3.74919H1.49115V2.27869C1.49115 1.84407 1.79731 1.52706 2.21674 1.52706ZM8.53765 1.79425H24.7759V17.5367H19.714V22.8249H15.2228C15.0897 21.9296 14.7475 21.0768 14.2391 20.3768C13.9855 20.0278 13.6732 19.7313 13.3357 19.4737C13.7937 18.9753 14.0756 18.2987 14.0756 17.5605C14.0756 17.0631 13.9407 16.5972 13.7171 16.1909H23.2128C24.1908 16.1873 24.1908 14.6689 23.2128 14.6639H10.0863C9.50574 14.6657 9.15511 15.33 9.46686 15.8374C9.1011 16.3129 8.8732 16.9097 8.8732 17.5605C8.8732 18.2963 9.15481 18.9698 9.61026 19.4678C9.26853 19.7261 8.95604 20.0259 8.70113 20.3768C8.64051 20.4601 8.59367 20.5569 8.53765 20.644L8.53765 1.79425ZM19.8488 3.73416C19.821 3.73352 19.7932 3.7345 19.7656 3.73719H13.5336C13.5126 3.73623 13.4915 3.73623 13.4705 3.73719C12.5721 3.85093 12.6291 5.21915 13.5336 5.25235H19.7656C20.7706 5.34271 20.8571 3.76212 19.8488 3.73416ZM1.49115 5.27603H3.57327V17.2218C3.22925 18.0812 2.82453 19.0732 2.4347 20.053C2.10301 19.114 1.76334 18.1571 1.49115 17.2574V5.27603ZM10.0863 6.74664C9.09374 6.73601 9.09374 8.28387 10.0863 8.27359H23.2128C24.2054 8.28422 24.2054 6.7364 23.2128 6.74664H16.6496H10.0863ZM10.0863 9.91354C9.1084 9.91708 9.1084 11.4356 10.0863 11.4406H23.2128C24.1908 11.4371 24.1908 9.91846 23.2128 9.91354H10.0863ZM23.296 12.2902C23.2683 12.2896 23.2405 12.2905 23.2128 12.2932H10.0863C10.0653 12.2923 10.0443 12.2923 10.0232 12.2932C9.12489 12.407 9.18187 13.7752 10.0863 13.8084H23.2128C24.2178 13.8987 24.3044 12.3182 23.296 12.2902ZM11.4744 16.3365C12.0969 16.3365 12.6015 16.8603 12.6015 17.5605C12.6015 18.2483 12.1131 18.7718 11.506 18.7905C11.4949 18.7904 11.4854 18.7834 11.4744 18.7834C11.4634 18.7834 11.4539 18.7905 11.4429 18.7905C10.8354 18.7728 10.3358 18.2485 10.3358 17.5605C10.3358 16.8602 10.8519 16.3365 11.4744 16.3365ZM21.1881 19.0519H24.7419C21.1881 22.7019 24.7419 19.0519 21.1881 22.7019V19.0519ZM10.181 20.9443L11.4586 22.1579L12.7765 20.9503C12.877 21.0537 12.9766 21.1617 13.069 21.2889C13.3705 21.7041 13.4428 22.281 13.5594 22.8249H9.38082C9.49777 22.2805 9.58097 21.7043 9.88271 21.2889C9.9771 21.1589 10.078 21.0499 10.181 20.9443Z" fill="black"/>
</svg>
